<?xml version="1.0" standalone="no"?>
<!DOCTYPE svg PUBLIC "-//W3C//DTD SVG 20010904//EN"
 "http://www.w3.org/TR/2001/REC-SVG-20010904/DTD/svg10.dtd">
<svg version="1.0" xmlns="http://www.w3.org/2000/svg"
 width="96.000000pt" height="96.000000pt" viewBox="0 0 96.000000 96.000000"
 preserveAspectRatio="xMidYMid meet">

<g transform="translate(0.000000,96.000000) scale(0.100000,-0.100000)"
fill="#000000" stroke="none">
<path d="M322 795 c-37 -27 -64 -55 -68 -69 -3 -14 -16 -32 -29 -40 -26 -17
-120 -125 -114 -131 7 -7 107 64 124 88 15 21 16 21 85 -48 66 -66 70 -72 70
-114 0 -43 -4 -50 -72 -118 -40 -40 -70 -73 -68 -73 3 0 34 27 69 59 36 33 69
57 74 54 11 -7 0 228 -11 239 -4 4 -5 -13 -4 -37 2 -25 0 -45 -5 -45 -5 0 -36
27 -68 61 -43 45 -55 63 -46 72 6 6 11 8 11 3 0 -4 28 25 61 64 34 39 59 73
57 75 -2 3 -32 -15 -66 -40z"/>
<path d="M570 835 c0 -3 27 -37 60 -76 33 -38 60 -66 60 -62 0 4 5 2 12 -5 8
-8 -4 -26 -49 -72 -33 -33 -64 -60 -68 -60 -4 0 -5 20 -3 45 1 24 0 41 -4 37
-11 -11 -22 -246 -12 -239 14 8 149 -118 140 -131 -5 -9 -15 -8 -39 3 -30 15
-31 15 -9 -1 l22 -17 -56 -64 c-59 -67 -67 -94 -14 -49 17 14 35 26 39 26 12
0 71 62 66 70 -2 4 27 40 65 80 39 39 70 76 70 81 0 17 -122 -73 -128 -93 -4
-17 -16 -9 -78 53 -70 70 -74 76 -74 119 0 43 4 49 71 115 46 45 73 65 76 57
6 -16 125 -104 131 -97 7 6 -86 113 -113 131 -13 8 -26 26 -29 39 -7 26 -136
130 -136 110z"/>
<path d="M110 401 c0 -5 31 -42 69 -81 38 -39 72 -82 75 -95 3 -13 23 -33 43
-46 21 -12 48 -31 60 -42 47 -42 33 -5 -21 56 l-56 64 22 17 c22 15 21 16 -10
1 l-33 -16 -14 34 c-8 20 -35 49 -62 69 -66 47 -73 51 -73 39z"/>
<path d="M437 344 c-17 -17 -4 -24 44 -24 36 0 49 4 47 13 -5 13 -79 22 -91
11z"/>
<path d="M350 305 c-14 -8 -20 -14 -14 -15 5 0 19 7 30 15 24 18 16 19 -16 0z"/>
<path d="M607 299 c7 -7 15 -10 18 -7 3 3 -2 9 -12 12 -14 6 -15 5 -6 -5z"/>
</g>
</svg>
